<?xml version="1.0" encoding="utf-8"?>
<!-- Generator: Adobe Illustrator 24.0.2, SVG Export Plug-In . SVG Version: 6.00 Build 0)  -->
<svg version="1.1" id="레이어_1" xmlns="http://www.w3.org/2000/svg" xmlns:xlink="http://www.w3.org/1999/xlink" x="0px"
	 y="0px" viewBox="0 0 104 43.7" style="enable-background:new 0 0 104 43.7;" xml:space="preserve">
<style type="text/css">
	.st0{fill:#C83182;}
	.st1{fill:#231815;}
	.st2{fill:#E8BA4E;}
	.st3{fill:#6556A3;}
</style>
<path class="st0" d="M11.4,12.2c0-6.9,3.9-9.5,8.8-9.8C22,2.3,25,2.8,25.8,3.5l-1.6,3.6h-0.3l-1.1-3.4c-0.2-0.2-1.6-0.3-2.3-0.2
	C18,3.6,15.8,6.7,16,11.8c0.2,2.6,1.7,4.2,4.1,4.5c1.2,0.1,4-0.4,4.8-1.3l0.4,0.5c-0.8,1.4-2.8,3.5-7.4,3.5
	C14.3,18.9,11.4,16.2,11.4,12.2z"/>
<path class="st1" d="M39.8,15.3c-0.1,1.3,0.7,1.8,2.3,0.7l0.2,0.4c-1.4,1.8-3.3,2.5-4.6,2.5c-1.2,0-2.1-0.4-2.4-1.5
	c-0.5,1-1.5,1.5-2.7,1.5c-3.3,0-6-1.7-6-5.7c0-5.1,4-7,6.9-7c1.4,0,2.5,0.5,3,1.5l3.4-1.5h0.4L39.8,15.3z M35.7,8.2
	C35.7,7.5,34.8,7,34,7c-1.6,0-2.9,1.8-2.9,6.6c0,2.6,0.4,4.3,1.9,4.3c0.5,0,1.6-0.2,2.2-1.5c0-0.2,0-0.4,0-0.6L35.7,8.2z"/>
<path class="st2" d="M45,9.4C45.1,8.2,44.4,8,43.6,8V7.3c2.6-0.1,4.6-1,5.7-1c0.4,0,0.5,0.2,0.5,0.5l-0.1,1.5c2.2-1,4.3-1.9,5.8-1.9
	c1.4,0,2.2,0.9,2.1,2.4l-0.5,6.7c-0.1,1.2,0.7,1.6,2.3,0.6l0.2,0.3C58.2,18.2,56,19,54.7,19c-1.7,0-2.5-0.9-2.4-3l0.5-7.1
	c0-0.4-0.1-0.6-0.5-0.6c-0.5,0-1.9,0.4-2.8,0.8L49,18.5l-4.6,0.2L45,9.4z"/>
<path class="st1" d="M70,3.5C70.1,2.2,69.5,2,68.6,2V1.3c2.6-0.1,4.7-1,5.7-1c0.4,0,0.5,0.2,0.5,0.5l-1,14.4
	c-0.1,1.3,0.7,1.7,2.3,0.7l0.2,0.4c-1.4,1.8-3.4,2.6-4.7,2.6c-1.3,0-2.2-0.5-2.4-1.7c-0.6,1.2-1.9,1.7-3.4,1.7
	c-3.1,0-5.2-1.8-5.2-5.2c0-4.5,3.2-7.4,7.5-7.4c0.6,0,1.2,0.2,1.6,0.4L70,3.5z M65.3,14.6c0,2.2,0.6,3,1.6,3c0.9,0,2.2-0.5,2.3-2.2
	l0.5-8C69.6,7.2,69,7,68.8,7C66.3,7,65.3,10.5,65.3,14.6z"/>
<path class="st0" d="M83.3,15.9c-0.1,1.4,0.5,1.8,1.2,1.9c0.5,0,1.8-0.1,2.4-1.1l0.5-7.4c0-0.5-0.1-1.1-0.7-1h-0.6v-1h0.6
	c2.4-0.2,4-1.2,5-1.3c0.4,0,0.5,0.2,0.5,0.5l-0.9,13.4c-0.2,3.2-2.5,5.4-7.3,5.4c-3.1,0-5.3-1.2-5.2-4.5H80
	c-0.1,2.2,1.2,3.1,3.4,3.1c1.8,0,3-1.1,3.2-3.5l0.2-2.4c-0.7,0.5-1.7,0.8-2.6,0.9c-3.6,0.2-5.6-1.3-5.3-4.2l0.4-5.8
	c0-0.3-0.2-0.5-0.5-0.5s-0.7,0.1-1,0.3l-0.4-0.5c1.1-1,2.7-1.9,4.2-1.9c1.4,0,2.3,0.6,2.2,1.9L83.3,15.9z"/>
<path class="st3" d="M87.3,34.5c0,0.9-0.4,2-1,3c0.3,0.2,0.5,0.4,0.8,0.5c0.5,0.3,1.5,0.4,2.1-0.2l0.3,0.3c-0.9,1.2-2,1.7-3,1.7
	c-1.1,0-1.4-0.2-1.8-0.5l-0.2-0.1c-0.9,0.5-2.2,0.7-2.7,0.7c-1.4,0-2.4,0-3.4-0.4c-1.2-0.5-1.7-1.7-1.7-2.5c0-1.7,1-2.7,2.7-3.3
	c-0.4-0.6-0.7-1.2-0.7-1.7c-0.1-0.4-0.1-1.3,0.5-1.9c0.7-0.8,1.8-1.2,3.4-1.1c1.7,0.1,2.4,1.1,2.4,2.1c0,0.9-0.4,1.9-2.2,2.5
	l-0.3,0.1c0.8,1.1,1.9,2.4,3,3.2c0.3-0.5,0.5-1.2,0.5-1.6c0-0.3-0.1-0.3-0.2-0.3h-0.7v-0.5H87.3z M83.8,38.6
	c-1.4-1.1-2.5-2.4-3.3-3.4c-0.3,0.4-0.5,0.9-0.6,1.7c0,1.1,0.7,2.2,2,2.2C82.8,39.1,83.2,38.9,83.8,38.6z M82,33l0.2-0.1
	c1-0.3,1.7-1,1.7-1.8c0-0.7-0.4-1.5-1.3-1.4c-0.9,0-1.4,1.2-1.1,2.1C81.5,32.2,81.8,32.6,82,33z"/>
<path class="st0" d="M26.4,39.1c-0.3,2.9-2.6,3.7-4.6,3.7c-3,0-4.6-1.9-5.1-4.6l3.2-0.3l0.1,0.2l-1,2.3c0.3,0.7,1.2,1.2,1.8,1.1
	c0.7-0.1,1.2-0.3,1.4-2.2L23.4,24c0.1-0.4-0.2-0.7-0.6-0.7H22v-1h7v1h-0.9c-0.4,0-0.4,0.1-0.5,0.5L26.4,39.1z"/>
<path class="st1" d="M30.2,32c0-4.2,3.3-6.3,6.8-6.3c3.3,0,5,1.5,5,2.9c0,2.6-3.2,3.4-7.6,3.8c0.3,1.7,1.7,2.8,3.5,2.8
	c1.4,0,2.4-0.5,3.3-1.3l0.3,0.3c-0.8,2-3,3.2-5.8,3.2C32.7,37.5,30.2,35.4,30.2,32z M37,26.4c-1.5,0-2.7,2.2-2.7,5.3
	c2.7-0.4,4.1-2.3,4.1-3.9C38.4,27,38,26.4,37,26.4z"/>
<path class="st2" d="M48.8,34.1c-0.1,1.3,0.8,1.6,2.3,0.6l0.2,0.3c-1.4,1.6-3.2,2.4-4.5,2.4c-1.8,0-2.5-1-2.4-2.8l0.8-11.5
	c0.1-1.2-0.6-1.4-1.3-1.4V21c2.4-0.1,4.4-1,5.3-1c0.4,0,0.5,0.3,0.5,0.5L48.8,34.1z"/>
<path class="st2" d="M57.4,34.1c-0.1,1.3,0.8,1.6,2.3,0.6L60,35c-1.4,1.6-3.2,2.4-4.5,2.4c-1.8,0-2.5-1-2.4-2.8l0.8-11.5
	c0.1-1.2-0.6-1.4-1.3-1.4V21c2.4-0.1,4.4-1,5.3-1c0.4,0,0.5,0.3,0.5,0.5L57.4,34.1z"/>
<path class="st1" d="M66.2,34.7c-0.1,1.3,0.5,1.7,1.1,1.7c0.5,0,1.7-0.1,2.3-1l0.5-6.9c0-0.5-0.1-1-0.6-1h-0.6v-0.9h0.6
	c2.2-0.2,3.8-1.1,4.7-1.2c0.4,0,0.5,0.2,0.4,0.5l-0.9,12.5c-0.2,3-2.3,5-6.8,5c-2.9,0-4.9-1.1-4.9-4.2h1.1c-0.1,2,1.1,2.9,3.1,2.9
	c1.7,0,2.8-1,3-3.3l0.2-2.3c-0.6,0.5-1.5,0.8-2.4,0.8c-3.4,0.2-5.3-1.2-5-3.9l0.4-5.4c0-0.3-0.2-0.5-0.5-0.5s-0.7,0.1-0.9,0.3
	l-0.3-0.5c1-1,2.5-1.7,3.9-1.7c1.3,0,2.1,0.5,2.1,1.7L66.2,34.7z"/>
</svg>
